<svg width="19" height="20" viewBox="0 0 19 20" fill="none" xmlns="http://www.w3.org/2000/svg">
<path d="M2.50029 20H16.4997C17.0301 20 17.5388 19.7893 17.9139 19.4142C18.2889 19.0392 18.4997 18.5305 18.4997 18.0001V9.00043C18.5004 8.86883 18.4752 8.73838 18.4254 8.61654C18.3757 8.49471 18.3023 8.3839 18.2097 8.29046L10.21 0.290781C10.0226 0.104538 9.76919 0 9.50501 0C9.24083 0 8.98739 0.104538 8.80004 0.290781L0.800354 8.29046C0.70587 8.38307 0.630703 8.49352 0.579208 8.61539C0.527714 8.73726 0.500915 8.86813 0.500366 9.00043V18.0001C0.500366 18.5305 0.711071 19.0392 1.08613 19.4142C1.46119 19.7893 1.96987 20 2.50029 20ZM7.50009 18.0001V13.0003H11.4999V18.0001H7.50009ZM2.50029 9.41042L9.50001 2.4107L16.4997 9.41042V18.0001H13.4999V13.0003C13.4999 12.4699 13.2891 11.9612 12.9141 11.5861C12.539 11.2111 12.0303 11.0004 11.4999 11.0004H7.50009C6.96968 11.0004 6.46099 11.2111 6.08593 11.5861C5.71087 11.9612 5.50017 12.4699 5.50017 13.0003V18.0001H2.50029V9.41042Z" fill="#898989"/>
</svg>
