<svg width="20" height="20" viewBox="0 0 20 20" fill="none" xmlns="http://www.w3.org/2000/svg">
<path d="M19.3198 12.0599C19.1958 12.0155 19.0642 11.9961 18.9326 12.0028C18.801 12.0095 18.672 12.0421 18.553 12.0988C18.4341 12.1555 18.3275 12.2351 18.2395 12.3331C18.1514 12.4311 18.0835 12.5456 18.0398 12.6699C17.5892 13.9438 16.8232 15.0828 15.8133 15.9806C14.8034 16.8785 13.5826 17.5059 12.2647 17.8043C10.9468 18.1028 9.57475 18.0625 8.2766 17.6873C6.97845 17.3121 5.79649 16.6142 4.84099 15.6587C3.88549 14.7032 3.18759 13.5213 2.8124 12.2231C2.43721 10.925 2.39695 9.55294 2.69539 8.23503C2.99383 6.91712 3.62124 5.69627 4.51908 4.6864C5.41691 3.67653 6.55593 2.91053 7.82985 2.45988C8.08047 2.37236 8.28607 2.18886 8.40141 1.94975C8.51674 1.71064 8.53237 1.43551 8.44485 1.18488C8.35732 0.934249 8.17383 0.728652 7.93472 0.613318C7.69561 0.497983 7.42048 0.482357 7.16985 0.569879C5.57689 1.13266 4.15248 2.08984 3.02956 3.3521C1.90664 4.61436 1.12183 6.14053 0.748366 7.78819C0.374903 9.43584 0.424967 11.1513 0.893885 12.7743C1.3628 14.3974 2.23529 15.8752 3.42991 17.0698C4.62453 18.2644 6.10234 19.1369 7.72541 19.6058C9.34847 20.0748 11.0639 20.1248 12.7115 19.7514C14.3592 19.3779 15.8854 18.5931 17.1476 17.4702C18.4099 16.3472 19.3671 14.9228 19.9298 13.3299C20.0163 13.0805 20.0007 12.8071 19.8865 12.5692C19.7722 12.3313 19.5685 12.1482 19.3198 12.0599Z" fill="#5516AA"/>
</svg>
